<svg width="168" height="138" viewBox="0 0 168 138" fill="none" xmlns="http://www.w3.org/2000/svg">
<path d="M60.0059 127.5H72.5059V111.5H83.0059V137.5H50.5059V111.5H60.0059V127.5ZM131.006 30C158.606 30 167.173 52.6667 168.006 64C168.006 81.6 158.506 96.5 140.506 100L168.006 136C158.006 137.2 153.173 133.5 152.006 131.5L120.006 91H131.006C152.606 91 157.006 73 156.506 64C156.106 46.4 140.006 40 131.006 40H80.0059V67.5H91.5059C103.906 67.5 114.006 52 114.006 44.5H124.506C124.506 60.1 106.506 77 91.5059 77H69.0059V30H131.006ZM88.5078 0C98.506 6.43521e-05 110.506 5.50005 119.008 15L110.008 21C106.674 17.1667 97.7077 9.5001 88.5078 9.5H44.5078C33.6745 9.5 9.50781 25.5 9.50781 50.5C9.50781 70.5 28.0078 91 44.5078 91H108.008L143.508 136C139.508 136 132.008 137.5 127.508 132L103.508 100.5H44.5078C25.0053 100.5 0.00741788 79 0.0078125 50.5C-0.495182 23.5 23.5061 1 44.5078 0H88.5078ZM59.5059 77H49.5059V44H41.0059V31.5H59.5059V77Z" fill="black"/>
</svg>
